<svg width="60" height="60" viewBox="0 0 60 60" fill="none" xmlns="http://www.w3.org/2000/svg">
<g clip-path="url(#clip0_1_10)">
<path d="M22.641 4.93565L25.0747 9.29665C27.2711 13.2322 26.3895 18.395 22.9301 21.8543C22.9301 21.8543 18.7345 26.0506 26.3419 33.6582C33.9469 41.2632 38.1457 37.07 38.1457 37.07C41.6051 33.6106 46.7677 32.729 50.7034 34.9253L55.0642 37.3591C61.0072 40.6756 61.7088 49.0096 56.4855 54.2334C53.3467 57.3721 49.5015 59.8145 45.2509 59.9754C38.0955 60.2469 25.9436 58.436 13.7539 46.2462C1.56424 34.0565 -0.246705 21.9046 0.0245703 14.7491C0.185708 10.4985 2.62801 6.65338 5.76679 3.51462C10.9904 -1.70895 19.3244 -1.0071 22.641 4.93565Z" fill="#262626"/>
</g>
<defs>
<clipPath id="clip0_1_10">
<rect width="60" height="60" fill="white"/>
</clipPath>
</defs>
</svg>
