<svg width="62" height="60" viewBox="0 0 62 60" fill="none" xmlns="http://www.w3.org/2000/svg">
<rect width="62" height="60" rx="6" fill="#E42D2D"/>
<path d="M41.178 12.9H49.552C49.9407 12.9 50.2763 13.0413 50.559 13.324C50.8417 13.6067 50.983 13.9423 50.983 14.331V48.569C50.983 48.9577 50.8417 49.2933 50.559 49.576C50.2763 49.8587 49.9407 50 49.552 50H39.959C39.5703 50 39.2347 49.8587 38.952 49.576C38.6693 49.2933 38.528 48.9577 38.528 48.569V34.047L35.03 39.771C34.4647 40.6543 33.811 41.096 33.069 41.096H29.359C28.617 41.096 27.9633 40.6543 27.398 39.771L23.9 34.047V48.569C23.9 48.9577 23.7587 49.2933 23.476 49.576C23.1933 49.8587 22.8577 50 22.469 50H12.876C12.4873 50 12.1517 49.8587 11.869 49.576C11.5863 49.2933 11.445 48.9577 11.445 48.569V14.331C11.445 13.9423 11.5863 13.6067 11.869 13.324C12.1517 13.0413 12.4873 12.9 12.876 12.9H21.25C22.2393 12.9 22.999 13.377 23.529 14.331L31.214 27.051L38.899 14.331C39.429 13.377 40.1887 12.9 41.178 12.9Z" fill="white"/>
</svg>
