<svg width="207" height="60" viewBox="0 0 207 60" fill="none" xmlns="http://www.w3.org/2000/svg">
<path d="M82.47 26.564V35.636C82.47 38.552 83.802 40.01 86.466 40.01C88.518 40.01 89.868 39.038 90.516 37.094C90.696 36.482 90.912 36.068 91.164 35.852C91.452 35.636 91.902 35.528 92.514 35.528H103.53C103.854 35.528 104.124 35.654 104.34 35.906C104.592 36.122 104.718 36.392 104.718 36.716C104.718 39.848 103.818 42.476 102.018 44.6C98.706 48.56 93.54 50.54 86.52 50.54C81.012 50.54 76.62 49.334 73.344 46.922C70.068 44.474 68.43 40.73 68.43 35.69V26.51C68.43 21.578 70.104 17.87 73.452 15.386C76.8 12.902 81.156 11.66 86.52 11.66C93.54 11.66 98.706 13.64 102.018 17.6C103.818 19.724 104.718 22.352 104.718 25.484C104.718 25.808 104.592 26.096 104.34 26.348C104.124 26.564 103.854 26.672 103.53 26.672H92.514C91.938 26.672 91.506 26.564 91.218 26.348C90.966 26.132 90.732 25.718 90.516 25.106C89.832 23.162 88.482 22.19 86.466 22.19C83.802 22.19 82.47 23.648 82.47 26.564ZM110.298 19.9H118.081C118.396 19.9 118.668 20.0147 118.898 20.244C119.127 20.4733 119.242 20.7457 119.242 21.061V32.8L126.509 20.889C126.881 20.2297 127.469 19.9 128.272 19.9H135.066C135.381 19.9 135.653 20.0147 135.883 20.244C136.112 20.4733 136.227 20.7457 136.227 21.061V48.839C136.227 49.1543 136.112 49.4267 135.883 49.656C135.653 49.8853 135.381 50 135.066 50H127.283C126.967 50 126.695 49.8853 126.466 49.656C126.236 49.4267 126.122 49.1543 126.122 48.839V38.046L118.855 49.011C118.425 49.6703 117.837 50 117.092 50H110.298C109.982 50 109.71 49.8853 109.481 49.656C109.251 49.4267 109.137 49.1543 109.137 48.839V21.061C109.137 20.7457 109.251 20.4733 109.481 20.244C109.71 20.0147 109.982 19.9 110.298 19.9ZM141.463 19.9H166.661C166.976 19.9 167.248 20.0147 167.478 20.244C167.707 20.4733 167.822 20.7457 167.822 21.061V27.984C167.822 28.2993 167.707 28.5717 167.478 28.801C167.248 29.0303 166.976 29.145 166.661 29.145H159.523V48.839C159.523 49.1543 159.408 49.4267 159.179 49.656C158.949 49.8853 158.677 50 158.362 50H149.762C149.446 50 149.174 49.8853 148.945 49.656C148.715 49.4267 148.601 49.1543 148.601 48.839V29.145H141.463C141.147 29.145 140.875 29.0303 140.646 28.801C140.416 28.5717 140.302 28.2993 140.302 27.984V21.061C140.302 20.7457 140.416 20.4733 140.646 20.244C140.875 20.0147 141.147 19.9 141.463 19.9ZM173.076 19.9H180.859C181.174 19.9 181.447 20.0147 181.676 20.244C181.905 20.4733 182.02 20.7457 182.02 21.061V32.8L189.287 20.889C189.66 20.2297 190.247 19.9 191.05 19.9H197.844C198.159 19.9 198.432 20.0147 198.661 20.244C198.89 20.4733 199.005 20.7457 199.005 21.061V48.839C199.005 49.1543 198.89 49.4267 198.661 49.656C198.432 49.8853 198.159 50 197.844 50H190.061C189.746 50 189.473 49.8853 189.244 49.656C189.015 49.4267 188.9 49.1543 188.9 48.839V38.046L181.633 49.011C181.203 49.6703 180.615 50 179.87 50H173.076C172.761 50 172.488 49.8853 172.259 49.656C172.03 49.4267 171.915 49.1543 171.915 48.839V21.061C171.915 20.7457 172.03 20.4733 172.259 20.244C172.488 20.0147 172.761 19.9 173.076 19.9Z" fill="white"/>
<path d="M62 60H6C2.68629 60 0 57.3137 0 54V6C7.73107e-07 2.68629 2.68629 0 6 0H62V60ZM12.876 12.9004C12.4873 12.9004 12.1518 13.0416 11.8691 13.3242C11.5865 13.6069 11.4453 13.9424 11.4453 14.3311V48.5693C11.4454 48.9579 11.5866 49.2936 11.8691 49.5762C12.1518 49.8587 12.4874 50 12.876 50H22.4688C22.8573 50 23.193 49.8586 23.4756 49.5762C23.7582 49.2936 23.9003 48.9579 23.9004 48.5693V34.0469L27.3984 39.7715C27.9637 40.6545 28.6175 41.0957 29.3594 41.0957H33.0693C33.8111 41.0956 34.4651 40.6545 35.0303 39.7715L38.5283 34.0469V48.5693C38.5284 48.9579 38.6696 49.2936 38.9521 49.5762C39.2348 49.8587 39.5704 50 39.959 50H49.5518C49.9403 50 50.276 49.8586 50.5586 49.5762C50.8412 49.2936 50.9833 48.9579 50.9834 48.5693V14.3311C50.9834 13.9424 50.8413 13.6069 50.5586 13.3242C50.2759 13.0416 49.9404 12.9004 49.5518 12.9004H41.1777C40.1886 12.9005 39.4294 13.3772 38.8994 14.3311L31.2139 27.0508L23.5293 14.3311C22.9993 13.3771 22.2393 12.9004 21.25 12.9004H12.876Z" fill="white"/>
</svg>
