<svg width="207" height="60" viewBox="0 0 207 60" fill="none" xmlns="http://www.w3.org/2000/svg">
<path d="M81.47 26.564V35.636C81.47 38.552 82.802 40.01 85.466 40.01C87.518 40.01 88.868 39.038 89.516 37.094C89.696 36.482 89.912 36.068 90.164 35.852C90.452 35.636 90.902 35.528 91.514 35.528H102.53C102.854 35.528 103.124 35.654 103.34 35.906C103.592 36.122 103.718 36.392 103.718 36.716C103.718 39.848 102.818 42.476 101.018 44.6C97.706 48.56 92.54 50.54 85.52 50.54C80.012 50.54 75.62 49.334 72.344 46.922C69.068 44.474 67.43 40.73 67.43 35.69V26.51C67.43 21.578 69.104 17.87 72.452 15.386C75.8 12.902 80.156 11.66 85.52 11.66C92.54 11.66 97.706 13.64 101.018 17.6C102.818 19.724 103.718 22.352 103.718 25.484C103.718 25.808 103.592 26.096 103.34 26.348C103.124 26.564 102.854 26.672 102.53 26.672H91.514C90.938 26.672 90.506 26.564 90.218 26.348C89.966 26.132 89.732 25.718 89.516 25.106C88.832 23.162 87.482 22.19 85.466 22.19C82.802 22.19 81.47 23.648 81.47 26.564ZM109.298 19.9H117.081C117.396 19.9 117.668 20.0147 117.898 20.244C118.127 20.4733 118.242 20.7457 118.242 21.061V32.8L125.509 20.889C125.881 20.2297 126.469 19.9 127.272 19.9H134.066C134.381 19.9 134.653 20.0147 134.883 20.244C135.112 20.4733 135.227 20.7457 135.227 21.061V48.839C135.227 49.1543 135.112 49.4267 134.883 49.656C134.653 49.8853 134.381 50 134.066 50H126.283C125.967 50 125.695 49.8853 125.466 49.656C125.236 49.4267 125.122 49.1543 125.122 48.839V38.046L117.855 49.011C117.425 49.6703 116.837 50 116.092 50H109.298C108.982 50 108.71 49.8853 108.481 49.656C108.251 49.4267 108.137 49.1543 108.137 48.839V21.061C108.137 20.7457 108.251 20.4733 108.481 20.244C108.71 20.0147 108.982 19.9 109.298 19.9ZM140.463 19.9H165.661C165.976 19.9 166.248 20.0147 166.478 20.244C166.707 20.4733 166.822 20.7457 166.822 21.061V27.984C166.822 28.2993 166.707 28.5717 166.478 28.801C166.248 29.0303 165.976 29.145 165.661 29.145H158.523V48.839C158.523 49.1543 158.408 49.4267 158.179 49.656C157.949 49.8853 157.677 50 157.362 50H148.762C148.446 50 148.174 49.8853 147.945 49.656C147.715 49.4267 147.601 49.1543 147.601 48.839V29.145H140.463C140.147 29.145 139.875 29.0303 139.646 28.801C139.416 28.5717 139.302 28.2993 139.302 27.984V21.061C139.302 20.7457 139.416 20.4733 139.646 20.244C139.875 20.0147 140.147 19.9 140.463 19.9ZM172.076 19.9H179.859C180.174 19.9 180.447 20.0147 180.676 20.244C180.905 20.4733 181.02 20.7457 181.02 21.061V32.8L188.287 20.889C188.66 20.2297 189.247 19.9 190.05 19.9H196.844C197.159 19.9 197.432 20.0147 197.661 20.244C197.89 20.4733 198.005 20.7457 198.005 21.061V48.839C198.005 49.1543 197.89 49.4267 197.661 49.656C197.432 49.8853 197.159 50 196.844 50H189.061C188.746 50 188.473 49.8853 188.244 49.656C188.015 49.4267 187.9 49.1543 187.9 48.839V38.046L180.633 49.011C180.203 49.6703 179.615 50 178.87 50H172.076C171.761 50 171.488 49.8853 171.259 49.656C171.03 49.4267 170.915 49.1543 170.915 48.839V21.061C170.915 20.7457 171.03 20.4733 171.259 20.244C171.488 20.0147 171.761 19.9 172.076 19.9Z" fill="black"/>
<path d="M0 6C0 2.68629 2.68629 0 6 0H62V60H6C2.68629 60 0 57.3137 0 54V6Z" fill="#E42D2D"/>
<path d="M41.178 12.9H49.552C49.9407 12.9 50.2763 13.0413 50.559 13.324C50.8417 13.6067 50.983 13.9423 50.983 14.331V48.569C50.983 48.9577 50.8417 49.2933 50.559 49.576C50.2763 49.8587 49.9407 50 49.552 50H39.959C39.5703 50 39.2347 49.8587 38.952 49.576C38.6693 49.2933 38.528 48.9577 38.528 48.569V34.047L35.03 39.771C34.4647 40.6543 33.811 41.096 33.069 41.096H29.359C28.617 41.096 27.9633 40.6543 27.398 39.771L23.9 34.047V48.569C23.9 48.9577 23.7587 49.2933 23.476 49.576C23.1933 49.8587 22.8577 50 22.469 50H12.876C12.4873 50 12.1517 49.8587 11.869 49.576C11.5863 49.2933 11.445 48.9577 11.445 48.569V14.331C11.445 13.9423 11.5863 13.6067 11.869 13.324C12.1517 13.0413 12.4873 12.9 12.876 12.9H21.25C22.2393 12.9 22.999 13.377 23.529 14.331L31.214 27.051L38.899 14.331C39.429 13.377 40.1887 12.9 41.178 12.9Z" fill="white"/>
</svg>
